<svg xmlns="http://www.w3.org/2000/svg" xmlns:xlink="http://www.w3.org/1999/xlink" width="175" height="75" viewBox="0 0 175.453 74.035" class="header-logo__img uk-svg">
  <defs>
    <clipPath id="clip-path">
      <rect id="Rectangle_3515" data-name="Rectangle 3515" width="175.453" height="74.035" fill="rgba(0,0,0,0)"></rect>
    </clipPath>
  </defs>
  <g id="Group_10739" data-name="Group 10739" transform="translate(42.382 63.54)">
    <g id="Group_10739-2" data-name="Group 10739" transform="translate(-42.382 -63.54)" clip-path="url(#clip-path)">
      <path id="Path_60379" data-name="Path 60379" d="M-25.105-30.271l.859-.113.1-.493h-5.926l.065.491.779.115c.831.084.9.139.9.29V-24.8h-6v-5.153c0-.048.058-.217.792-.318l.889-.113.065-.493h-5.9l.067.491.723.115c.866.086.929.165.929.29v11.107c0,.048-.058.217-.794.318l-.859.113-.067.493h5.9l-.1-.491-.721-.115c-.864-.084-.929-.169-.929-.29v-5.346h6v5.318c0,.143-.244.244-.766.318l-.883.11-.03,0-.1.493h5.926l-.061-.461,0-.03-.7-.115c-.889-.087-.957-.175-.957-.29V-29.953c0-.048.056-.217.792-.318" transform="translate(45.738 91.597)" fill="#2e5b65"></path>
      <path id="Path_60380" data-name="Path 60380" d="M-23.594-30.58a6.369,6.369,0,0,0-6.451,6.425,6.105,6.105,0,0,0,6.285,6.339,6.349,6.349,0,0,0,6.451-6.534,6.221,6.221,0,0,0-1.757-4.428,6.294,6.294,0,0,0-4.528-1.8m2.537,10.566A3,3,0,0,1-23.622-18.4a2.9,2.9,0,0,1-2.181-.982c-.662-.68-1.452-2.147-1.452-5.276a7.364,7.364,0,0,1,.9-3.72A2.981,2.981,0,0,1-23.76-30a2.978,2.978,0,0,1,2.181.956c.941.965,1.48,2.868,1.48,5.22a7.36,7.36,0,0,1-.957,3.811" transform="translate(52.979 91.852)" fill="#2e5b65"></path>
      <path id="Path_60381" data-name="Path 60381" d="M-14.041-19.213a3.654,3.654,0,0,1-2.3.82,2.081,2.081,0,0,1-1.541-.515,1.918,1.918,0,0,1-.461-1.431l.191-7.612h3.859l.413-1.244h-4.27l.028-2.45-.383-.095-2.668,2.14-1.506,1.171-.093.532,2.216.056-.164,7.778a3.349,3.349,0,0,0,.79,2.476,2.982,2.982,0,0,0,2.208.77c1.621,0,3.119-1.288,3.868-2.056l.02-.02L-14-19.245Z" transform="translate(59.231 90.855)" fill="#2e5b65"></path>
      <path id="Path_60382" data-name="Path 60382" d="M-7.271-21.583a3.949,3.949,0,0,1-3.612,1.943c-2.5,0-4.242-2.142-4.242-5.209a8.209,8.209,0,0,1,.076-1.089l7.9.054h.035l.006-.032a3.676,3.676,0,0,0,.084-.729c0-2.391-1.751-3.935-4.462-3.935-3.521,0-6.175,2.88-6.175,6.7,0,3.458,2.406,6.064,5.6,6.064,2.151,0,3.844-1.164,5.173-3.558l.02-.035-.374-.2Zm-7.707-4.882c.353-2.019,1.7-3.536,3.155-3.536a1.759,1.759,0,0,1,1.3.537,4.229,4.229,0,0,1,.9,2.972l-5.352.026" transform="translate(63.612 91.852)" fill="#2e5b65"></path>
      <path id="Path_60383" data-name="Path 60383" d="M-5.831-15.722c-1.119-.112-1.232-.171-1.232-.374V-34.079l-4.2,1.091-.028.007-.033.364,1,.344c.682.184.855.372.855,1.673v14.448c0,.283-.214.372-1.039.429l-.615.03-.065.494h6.01l-.1-.494Z" transform="translate(69.061 88.846)" fill="#2e5b65"></path>
      <path id="Path_60384" data-name="Path 60384" d="M6.68-20.384C5.511-18.663,4.33-17.96,2.6-17.96c-2.985,0-5.071-2.677-5.071-6.508a7.363,7.363,0,0,1,1.316-4.5,4.51,4.51,0,0,1,3.727-1.812A5.219,5.219,0,0,1,5.39-30.1l1.66,3.409.011.024h.558l-.058-4.467,0-.058-1.532.53a9.2,9.2,0,0,0-3.478-.744A8.146,8.146,0,0,0-3.1-29.411,6.745,6.745,0,0,0-5.251-24.3a6.54,6.54,0,0,0,2.162,5.051A8.1,8.1,0,0,0,2.4-17.358a12.514,12.514,0,0,0,4-.749l.885-.028h.033l.638-3.885.007-.048H7.4Z" transform="translate(74.276 91.142)" fill="#2e5b65"></path>
      <path id="Path_60385" data-name="Path 60385" d="M8.968-30.414a6.115,6.115,0,0,0-6.194,6.168,5.865,5.865,0,0,0,6.034,6.09A6.1,6.1,0,0,0,15-24.432a5.981,5.981,0,0,0-1.686-4.253,6.044,6.044,0,0,0-4.35-1.729M11.4-20.27a2.877,2.877,0,0,1-2.461,1.55,2.771,2.771,0,0,1-2.091-.941C5.7-20.842,5.456-23.066,5.456-24.724c0-3.525,1.738-5.131,3.352-5.131a2.85,2.85,0,0,1,2.093.916c.9.928,1.42,2.753,1.42,5.01A7.056,7.056,0,0,1,11.4-20.27" transform="translate(81.169 91.995)" fill="#2e5b65"></path>
      <path id="Path_60386" data-name="Path 60386" d="M15.137-16.15c-1.074-.108-1.184-.164-1.184-.357V-33.773L9.924-32.726l-.03.007-.032.353.963.329c.652.178.818.359.818,1.606v13.872c0,.27-.206.353-.995.409l-.591.028-.065.48h5.774l-.1-.48Z" transform="translate(87.259 89.109)" fill="#2e5b65"></path>
      <path id="Path_60387" data-name="Path 60387" d="M18.746-16.15c-1.073-.108-1.184-.164-1.184-.357V-33.773l-4.028,1.047-.03.007-.032.353.963.329c.652.178.818.359.818,1.606v13.872c0,.27-.206.353-.995.409l-.591.028-.065.48h5.774l-.1-.48Z" transform="translate(90.359 89.109)" fill="#2e5b65"></path>
      <path id="Path_60388" data-name="Path 60388" d="M27.135-21.775a3.794,3.794,0,0,1-3.467,1.866c-2.4,0-4.069-2.058-4.069-5a7.916,7.916,0,0,1,.073-1.045l7.577.054h.035l.006-.035a3.362,3.362,0,0,0,.08-.7c0-2.3-1.681-3.781-4.285-3.781-3.381,0-5.93,2.764-5.93,6.434,0,3.32,2.311,5.824,5.374,5.824,2.065,0,3.692-1.119,4.969-3.415l.02-.037-.363-.2Zm-4.369-8.079a1.679,1.679,0,0,1,1.246.517,4.056,4.056,0,0,1,.861,2.85l-5.134.026c.342-1.935,1.636-3.393,3.028-3.393" transform="translate(93.521 91.995)" fill="#2e5b65"></path>
      <path id="Path_60389" data-name="Path 60389" d="M33.265-21.775a3.591,3.591,0,0,1-3.335,1.865c-2.394,0-4.069-2.065-4.069-5.025,0-2.85,1.5-4.919,3.565-4.919A1.943,1.943,0,0,1,31-29.172a.549.549,0,0,1-.091.178,1.457,1.457,0,0,0-.281.846,1.573,1.573,0,0,0,.4,1.206,1.367,1.367,0,0,0,1.026.455,1.393,1.393,0,0,0,1.394-1.42c0-1.454-1.656-2.508-3.941-2.508a6.131,6.131,0,0,0-6.088,6.434c0,3.32,2.3,5.824,5.346,5.824,2.041,0,3.642-1.117,4.889-3.417l.02-.037-.389-.2Z" transform="translate(98.902 91.995)" fill="#2e5b65"></path>
      <path id="Path_60390" data-name="Path 60390" d="M37.441-19.5a3.5,3.5,0,0,1-2.2.788,2,2,0,0,1-1.48-.5,1.826,1.826,0,0,1-.442-1.372l.184-7.306h3.7l.381-1.143.019-.054H33.5L33.53-31.4v-.033l-.368-.093L30.6-29.473l-1.433,1.114-.013.009-.091.515,2.129.052-.158,7.466a3.215,3.215,0,0,0,.76,2.379,2.861,2.861,0,0,0,2.119.74,5.836,5.836,0,0,0,3.718-1.974l.02-.022-.169-.338Z" transform="translate(103.751 91.037)" fill="#2e5b65"></path>
      <path id="Path_60391" data-name="Path 60391" d="M36.173-30.118A1.5,1.5,0,0,0,37.7-31.646a1.505,1.505,0,0,0-1.526-1.578,1.505,1.505,0,0,0-1.528,1.578,1.5,1.5,0,0,0,1.528,1.528" transform="translate(108.545 89.581)" fill="#2e5b65"></path>
      <path id="Path_60392" data-name="Path 60392" d="M39.279-19.054c-1.1-.082-1.208-.162-1.208-.357V-30.392l-3.95,1.048-.03.007-.032.359.645.138c.877.2,1.082.415,1.082,2.056v7.321c0,.266-.219.353-1.021.409l-.589.028-.1.48h5.8l-.1-.48Z" transform="translate(108.042 92.013)" fill="#2e5b65"></path>
      <path id="Path_60393" data-name="Path 60393" d="M43.891-30.414A6.115,6.115,0,0,0,37.7-24.246a5.866,5.866,0,0,0,6.036,6.09,6.1,6.1,0,0,0,6.194-6.276,5.988,5.988,0,0,0-1.684-4.253,6.051,6.051,0,0,0-4.352-1.729M46.328-20.27a2.879,2.879,0,0,1-2.461,1.55,2.768,2.768,0,0,1-2.091-.941c-1.153-1.182-1.394-3.406-1.394-5.064a7.035,7.035,0,0,1,.866-3.569,2.854,2.854,0,0,1,2.485-1.562,2.849,2.849,0,0,1,2.091.916c.9.928,1.42,2.753,1.42,5.01a7.074,7.074,0,0,1-.916,3.658" transform="translate(111.167 91.995)" fill="#2e5b65"></path>
      <path id="Path_60394" data-name="Path 60394" d="M53.029-19.047l-.561.028-.1.48h5.752l-.1-.48-.481-.028c-1.234-.108-1.234-.242-1.234-.385v-7.4a3.767,3.767,0,0,0-.889-2.787A2.87,2.87,0,0,0,53.3-30.4c-1.773,0-3.3,1.238-4.417,2.149h-.022l.052-2.078,0-.056-3.978,1.047-.03.009-.032.359.645.138c.877.2,1.082.418,1.082,2.082v7.295c0,.266-.219.353-1.022.409l-.589.028-.095.48H50.72l-.065-.48-.589-.028c-1.08-.082-1.182-.162-1.182-.357v-8.23a4.423,4.423,0,0,1,2.8-1.065c1.625,0,2.32.766,2.32,2.558v6.685c0,.191-.074.353-.97.409" transform="translate(117.33 92.007)" fill="#2e5b65"></path>
      <path id="Path_60395" data-name="Path 60395" d="M-18.807-27.232l1.346-.178c.987-.134,1.346-.359,1.346-.582V-46.018c0-.268-.178-.4-1.571-.537l-1.074-.18-.089-.673h8.743c6.233,0,8.295,2.019,8.295,4.575,0,2.42-2.106,4.261-6.142,4.843v.089c4.618.314,7.129,2.6,7.129,5.56,0,3.452-2.915,5.783-9.193,5.783h-8.877Zm7.982-10.94c3.184-.043,4.887-1.747,4.887-4.17,0-2.826-1.749-4.305-5.068-4.305h-1.3v8.52Zm1.076,10.851a4.684,4.684,0,0,0,4.843-4.841c0-3.184-2.378-5.2-5.74-5.2-.448,0-1.344,0-1.658.046v9.5l2.017.493Z" transform="translate(62.557 77.396)" fill="#2e5b65"></path>
      <path id="Path_60396" data-name="Path 60396" d="M2.979-29.755,2.89-29.8c-1.569,1.7-3.407,3.318-5.649,3.318A4.712,4.712,0,0,1-7.6-31.054c0-3.093,2.467-5.335,10.762-7.22L3.2-39.393c.089-4.575-1.7-6.144-4.395-6.144-1.569,0-3.363.853-3.363,1.255,0,.314,1.121,1.21,1.121,2.422a2.048,2.048,0,0,1-2.2,1.972,2.052,2.052,0,0,1-2.24-1.883c0-2.331,5.335-5.155,8.921-5.155,4.573,0,6.278,1.656,5.964,7.711l-.4,8.295c-.089,1.435.448,2.2,1.391,2.2a3.328,3.328,0,0,0,1.972-1.121l.4.4c-.942,1.257-2.465,3-4.305,3s-2.913-1.121-3.093-3.318m-.089-.807.27-7c-5.785,1.346-7,3.229-7,5.335a3.185,3.185,0,0,0,3,3.365,4.974,4.974,0,0,0,3.722-1.7" transform="translate(72.027 77.811)" fill="#2e5b65"></path>
      <path id="Path_60397" data-name="Path 60397" d="M2.392-27.666l.941-.045c1.3-.089,1.794-.225,1.794-.762V-40.8c0-2.781-.312-3.229-1.881-3.586l-1.034-.227.046-.493,6.635-1.749L8.8-40.177h.134c1.571-4.348,3.365-6.726,6.01-6.726a2.684,2.684,0,0,1,2.868,2.467,2.4,2.4,0,0,1-2.42,2.511,2.638,2.638,0,0,1-2.6-2.422c-1.569.494-2.781,2.422-3.945,6.01v9.953c0,.4.314.584,2.106.673l1.524.045.134.673H2.258Z" transform="translate(80.687 77.831)" fill="#2e5b65"></path>
      <path id="Path_60398" data-name="Path 60398" d="M34.025-29.755l-.087-.045c-1.571,1.7-3.407,3.318-5.649,3.318a4.714,4.714,0,0,1-4.844-4.573c0-3.093,2.467-5.335,10.762-7.22l.045-1.119c.089-4.575-1.7-6.144-4.393-6.144-1.569,0-3.365.853-3.365,1.255,0,.314,1.123,1.21,1.123,2.422a2.05,2.05,0,0,1-2.2,1.972,2.052,2.052,0,0,1-2.242-1.883c0-2.331,5.335-5.155,8.921-5.155,4.573,0,6.278,1.656,5.965,7.711l-.405,8.295c-.089,1.435.448,2.2,1.392,2.2a3.329,3.329,0,0,0,1.97-1.121l.4.4c-.941,1.257-2.463,3-4.305,3s-2.913-1.121-3.093-3.318m-.087-.807.268-7c-5.785,1.346-7,3.229-7,5.335a3.185,3.185,0,0,0,3,3.365,4.981,4.981,0,0,0,3.723-1.7" transform="translate(98.694 77.811)" fill="#2e5b65"></path>
      <path id="Path_60399" data-name="Path 60399" d="M33.438-27.666l.941-.045c1.3-.089,1.794-.225,1.794-.762V-40.8c0-2.781-.312-3.229-1.881-3.586l-1.034-.227.046-.493,6.635-1.749-.089,6.681h.134c1.571-4.348,3.365-6.726,6.01-6.726a2.684,2.684,0,0,1,2.868,2.467,2.4,2.4,0,0,1-2.42,2.511,2.637,2.637,0,0,1-2.6-2.422c-1.569.494-2.781,2.422-3.945,6.01v9.953c0,.4.312.584,2.106.673l1.524.045.134.673H33.3Z" transform="translate(107.354 77.831)" fill="#2e5b65"></path>
      <path id="Path_60400" data-name="Path 60400" d="M53.011-29.755l-.089-.045c-1.569,1.7-3.407,3.318-5.649,3.318a4.712,4.712,0,0,1-4.843-4.573c0-3.093,2.467-5.335,10.762-7.22l.045-1.119c.089-4.575-1.7-6.144-4.395-6.144-1.569,0-3.363.853-3.363,1.255,0,.314,1.121,1.21,1.121,2.422a2.048,2.048,0,0,1-2.2,1.972,2.054,2.054,0,0,1-2.242-1.883c0-2.331,5.337-5.155,8.923-5.155,4.573,0,6.278,1.656,5.964,7.711l-.4,8.295c-.089,1.435.448,2.2,1.391,2.2a3.328,3.328,0,0,0,1.972-1.121l.4.4c-.942,1.257-2.465,3-4.305,3s-2.913-1.121-3.093-3.318m-.089-.807.27-7c-5.785,1.346-7,3.229-7,5.335a3.185,3.185,0,0,0,3,3.365,4.974,4.974,0,0,0,3.722-1.7" transform="translate(115 77.811)" fill="#2e5b65"></path>
      <path id="Path_60401" data-name="Path 60401" d="M22.84-42.771c-2.69,0-4.932,1.571-6.861,3.766l-.134-.045v-12.4a2.62,2.62,0,0,1-2.511,1.708,2.883,2.883,0,0,1-1.409-.385,1.648,1.648,0,0,1,.244.993V-22.19h.357l2.424-1.478h.045A17.2,17.2,0,0,0,20.5-22.46c5.157,0,10.269-4.034,10.269-10.9,0-5.424-3.316-9.416-7.934-9.416M21.36-23.4c-2.333,0-4.439-1.928-5.516-4.125V-37.7a6.556,6.556,0,0,1,4.889-2.422c3.586,0,5.872,3.543,5.872,8.072,0,4.843-2.017,8.653-5.246,8.653" transform="translate(89.029 73.924)" fill="#2e5b65"></path>
      <path id="Path_60402" data-name="Path 60402" d="M-38.054-41.668l-.314-5.6h.673l1.3,3a5.734,5.734,0,0,0,5.155,2.824c2.87,0,4.62-1.792,4.62-4.17,0-2.69-2.108-3.675-5.068-4.707-3.363-1.166-6.142-2.647-6.142-6.144,0-3,2.556-5.917,7.038-5.917a16.711,16.711,0,0,1,4.664.718l1.435-.45.045,6.053h-.628L-27.382-60.5a6.783,6.783,0,0,0-3.588-1.078c-2.331,0-4.036,1.571-4.036,3.452,0,2.422,2.2,3.365,4.932,4.305,3.768,1.257,6.5,2.87,6.5,6.592,0,3.274-3.049,6.592-7.891,6.592a23.112,23.112,0,0,1-6.592-1.032" transform="translate(45.83 64.535)" fill="#2e5b65"></path>
      <path id="Path_60403" data-name="Path 60403" d="M-18.255-44.487l-.089-.045c-1.569,1.7-3.407,3.318-5.649,3.318a4.712,4.712,0,0,1-4.843-4.573c0-3.1,2.467-5.335,10.762-7.22l.045-1.119c.089-4.575-1.7-6.144-4.395-6.144-1.569,0-3.363.853-3.363,1.255,0,.314,1.121,1.21,1.121,2.422a2.048,2.048,0,0,1-2.2,1.972A2.052,2.052,0,0,1-29.1-56.5c0-2.331,5.335-5.155,8.921-5.155,4.573,0,6.278,1.656,5.964,7.711l-.4,8.295c-.089,1.435.448,2.2,1.391,2.2a3.328,3.328,0,0,0,1.972-1.121l.4.4c-.942,1.257-2.465,3-4.305,3s-2.913-1.121-3.093-3.318m-.089-.807.27-7c-5.785,1.346-7,3.229-7,5.335a3.185,3.185,0,0,0,3,3.365,4.974,4.974,0,0,0,3.722-1.7" transform="translate(53.787 65.157)" fill="#2e5b65"></path>
      <path id="Path_60404" data-name="Path 60404" d="M-18.842-42.4l.941-.045c1.3-.089,1.794-.225,1.794-.762v-12.33c0-2.781-.312-3.229-1.881-3.586l-1.034-.227.046-.493,6.635-1.749L-12.43-58h.134c1.93-1.569,4.486-3.632,7.443-3.632a4.813,4.813,0,0,1,3.543,1.3A6.357,6.357,0,0,1,.17-55.67v12.509c0,.314.089.539,2.153.718l.762.045.134.673H-6.331L-6.2-42.4l.9-.045c1.48-.089,1.7-.359,1.7-.762v-11.3c0-3.183-1.3-4.393-3.991-4.393a7.465,7.465,0,0,0-4.8,1.839v13.944c0,.4.268.539,2.062.673l.941.045.091.673h-9.685Z" transform="translate(62.447 65.177)" fill="#2e5b65"></path>
      <path id="Path_60405" data-name="Path 60405" d="M-3.546-44.664l.27-12.689-3.588-.089.136-.762,2.42-1.883L0-63.54l.537.134L.49-59.415h6.9l-.626,1.883H.49L.176-45.112C.131-43,1.252-41.883,3.494-41.883A6.023,6.023,0,0,0,7.26-43.229l.225.448c-1.749,1.794-3.991,3.318-6.233,3.318-3,0-4.843-1.569-4.8-5.2" transform="translate(72.891 63.541)" fill="#2e5b65"></path>
      <path id="Path_60406" data-name="Path 60406" d="M21.818-46.051a4.166,4.166,0,0,0-3.121,1.61,1.943,1.943,0,0,1-1.454.861c-.942,0-1.48-.762-1.39-2.2l.4-8.295c.314-6.055-1.391-7.711-5.964-7.711-3.586,0-8.921,2.824-8.921,5.155a2.052,2.052,0,0,0,2.24,1.883,2.048,2.048,0,0,0,2.2-1.971c0-1.214-1.121-2.11-1.121-2.424,0-.4,1.794-1.255,3.363-1.255,2.69,0,4.484,1.569,4.395,6.144L12.4-53.131c-8.295,1.885-10.762,4.125-10.762,7.22a4.712,4.712,0,0,0,4.843,4.573c2.242,0,4.08-1.614,5.649-3.318l.089.046c.18,2.2,1.257,3.316,3.093,3.316a5.182,5.182,0,0,0,3.6-2.132c.245-.283.468-.565.666-.827a.445.445,0,0,1,.093-.08.172.172,0,0,1,.112-.024.144.144,0,0,1,.1.054.174.174,0,0,1,.037.089c.009.065.05.364.05.364a3.126,3.126,0,0,0,.154.63A2.261,2.261,0,0,0,22.266-41.7a2.092,2.092,0,0,0,2.11-2.2,2.385,2.385,0,0,0-2.558-2.155m-9.687.632a4.968,4.968,0,0,1-3.722,1.7,3.185,3.185,0,0,1-3-3.365c0-2.1,1.21-3.989,7-5.335Z" transform="translate(79.964 65.05)" fill="#2e5b65"></path>
      <path id="Path_60407" data-name="Path 60407" d="M-42.25-35.654c-.236-2.422,3.136-4.517,6.531-5.594C-26.657-44.128-13.4-38.257-6.4-24.358c.02.037.013.219-.2-.048-1.019-1.257-4.3-4.27-6.1-5.043a9.027,9.027,0,0,0-5.423-.732c-3.08.5-5.467,2.978-7.029,2.149a1.608,1.608,0,0,1-.586-2.188,3.066,3.066,0,0,1,1.534-1.268,8.254,8.254,0,0,1,2.372-.552c.186-.022.729-.117.522-.587a2.131,2.131,0,0,0-.8-.781,4.081,4.081,0,0,0-2.391-.413,5.866,5.866,0,0,0-2.524.855c-1.892,1.149-5.367,3.43-6.382,1.175a2,2,0,0,1,.379-2.229,4.184,4.184,0,0,1,1.563-1.03,6.352,6.352,0,0,1,1.8-.452c.6-.059,1.115-.1.706-.712a2.239,2.239,0,0,0-.8-.723,4.582,4.582,0,0,0-4.038.067c-1.359.547-2.729,1.954-4.724,2.816-1.489.641-3.528.361-3.72-1.6" transform="translate(42.486 82.075)" fill="#2e5b65"></path>
      <path id="Path_60408" data-name="Path 60408" d="M-40.584-40.885c-1.487-.134-2.032-.926-.416-2.067,2.11-1.489,6.194-2.9,11.421.231.653.368,1.98,1.231,2.623,1.658-5.439-2.536-8.83.608-13.628.178" transform="translate(42.725 79.812)" fill="#2e5b65"></path>
      <path id="Path_60409" data-name="Path 60409" d="M-20.233-46.04c.8-.993,1.632-1.584,1.939-1.2.29.376.247,2.023.16,3.322-.554,8.044-5.729,11.308-3.235,20.475-.6-.993-1.686-3.026-2.19-4.008-3.6-6.2-1.924-12.081,3.326-18.593" transform="translate(56.905 77.442)" fill="#2e5b65"></path>
      <path id="Path_60410" data-name="Path 60410" d="M-24.7-48.038c.29-.338,1.273-1.428,1.495-1.058a10.8,10.8,0,0,1,.3,2.774c.171,6.737-4.363,9.752-1.465,17.532-.554-.8-1.781-2.523-2.253-3.322-3.331-5.008-2.1-11.226,1.918-15.926" transform="translate(54.273 75.882)" fill="#2e5b65"></path>
      <path id="Path_60411" data-name="Path 60411" d="M-26.015-32.512c-.6-.558-2.129-1.889-2.662-2.459-3.987-3.805-3.776-9.624-.79-14.242.666-1.026,1.262,1.545,1.314,1.842,1.359,7.665-1.786,8.436,2.138,14.859" transform="translate(51.565 75.64)" fill="#2e5b65"></path>
      <path id="Path_60412" data-name="Path 60412" d="M-28.238-37.065c-.571-.223-1.474-.541-2-.79-3.891-1.582-5.348-5.93-4.33-10.072.1-.416,1,.271,1.491,1,2.545,3.779.617,6.333,4.841,9.862" transform="translate(48.822 76.843)" fill="#2e5b65"></path>
    </g>
  </g>
</svg>